# xmcd CD database file
#
# Track frame offsets:
#	150
#	48382
#	98093
#	119480
#	158641
#	190886
#	239612
#
# Disc length: 3676 seconds
#
# Revision: 0
# Processed by: cddbd v1.5.1PL0 Copyright (c) Steve Scherf et al.
# Submitted via: CDex 1.51
#
DISCID=580e5a07
DTITLE=Erik Berglund - Elysium, Abode Of The Angels
DYEAR=1994
DGENRE=New Age
TTITLE0=Garden Of The Heart
TTITLE1=Angel Prayer
TTITLE2=Star Memories
TTITLE3=Angel Lullaby
TTITLE4=Awakening
TTITLE5=Anciente Voices
TTITLE6=Herald Of The New Dawn
EXTD=YEAR: 1994
EXTT0=
EXTT1=
EXTT2=
EXTT3=
EXTT4=
EXTT5=
EXTT6=
PLAYORDER=
